<svg width="32" height="32" viewBox="0 0 32 32" fill="none" xmlns="http://www.w3.org/2000/svg">
<path d="M12.4319 14.5975C13.0356 14.5975 13.5294 15.0915 13.5296 15.6952C13.5296 16.299 13.0357 16.7929 12.4319 16.7929C11.8283 16.7927 11.3342 16.2989 11.3342 15.6952C11.3344 15.0917 11.8284 14.5977 12.4319 14.5975Z" fill="#546E7A"/>
<path fill-rule="evenodd" clip-rule="evenodd" d="M15.6663 6.52734C19.6262 6.52734 22.9226 9.27442 23.6625 12.9337C26.4342 13.1208 28.629 15.3045 28.7163 18.027L26.1104 16.8426L20.3478 19.4625L19.5828 19.8093V23.4989H9.13883C5.53783 23.4989 2.61133 20.6455 2.61133 17.1345C2.61133 13.857 5.15682 11.1519 8.43126 10.8123C9.79118 8.26662 12.5223 6.52734 15.6663 6.52734ZM12.4319 12.4021C10.6153 12.4023 9.13902 13.8786 9.13883 15.6952C9.13883 17.5119 10.6152 18.9893 12.4319 18.9895C13.8646 18.9895 15.0837 18.0718 15.5338 16.7929H17.9216V18.9895H20.117V16.7929H21.2147V14.5975H15.5338C15.0836 13.3186 13.8645 12.4021 12.4319 12.4021Z" fill="#546E7A"/>
<path fill-rule="evenodd" clip-rule="evenodd" d="M31.3324 20.6507V24.2115C31.3321 27.5047 29.1041 30.5842 26.1104 31.3319C23.1166 30.5842 20.8886 27.5047 20.8883 24.2115V20.6507L26.1104 18.2769L31.3324 20.6507ZM26.1104 21.9779C26.0886 21.9779 26.067 21.9785 26.0453 21.9805C26.0223 21.9825 25.9994 21.9851 25.9765 21.9894C25.9522 21.994 25.9287 22.0015 25.9051 22.0085C25.888 22.0136 25.8709 22.0186 25.8541 22.0251C25.827 22.0354 25.8007 22.0472 25.7751 22.0608C25.766 22.0656 25.7559 22.0696 25.747 22.0748C25.7412 22.0782 25.7361 22.0827 25.7304 22.0863C25.7074 22.1007 25.6854 22.1163 25.6641 22.1334C25.6482 22.1462 25.6327 22.1591 25.6182 22.173C25.6042 22.1865 25.5917 22.2015 25.5787 22.2163C25.5604 22.2373 25.5431 22.2586 25.5277 22.2813C25.5242 22.2866 25.5197 22.2912 25.5162 22.2966L23.6013 25.3092C23.4012 25.6245 23.5044 26.0369 23.8321 26.2297C24.1602 26.4224 24.5891 26.3221 24.7896 26.0066L26.1104 23.9285L27.4312 26.0066C27.6316 26.3221 28.0605 26.4224 28.3886 26.2297C28.7163 26.0369 28.8195 25.6245 28.6194 25.3092L26.7045 22.2966C26.7009 22.291 26.6954 22.2868 26.6917 22.2813C26.6763 22.2586 26.6591 22.2373 26.6407 22.2163C26.6277 22.2015 26.6153 22.1865 26.6012 22.173C26.5867 22.1591 26.5712 22.1462 26.5553 22.1334C26.534 22.1163 26.512 22.1007 26.489 22.0863C26.4836 22.0829 26.4792 22.078 26.4737 22.0748C26.4645 22.0694 26.4538 22.0657 26.4444 22.0608C26.4187 22.0472 26.3925 22.0354 26.3653 22.0251C26.3489 22.0188 26.3323 22.0135 26.3156 22.0085C26.2916 22.0013 26.2677 21.994 26.2429 21.9894C26.2201 21.9851 26.1971 21.9825 26.1741 21.9805C26.1529 21.9786 26.1317 21.9779 26.1104 21.9779Z" fill="#1195C2"/>
</svg>
