<svg width="32" height="32" viewBox="0 0 32 32" fill="none" xmlns="http://www.w3.org/2000/svg">
<g clip-path="url(#clip0_6935_6091)">
<path d="M11.3626 14.909C11.9792 14.909 12.4835 15.4136 12.4837 16.0301C12.4837 16.6468 11.9793 17.1512 11.3626 17.1512C10.7461 17.151 10.2415 16.6467 10.2415 16.0301C10.2417 15.4137 10.7462 14.9092 11.3626 14.909Z" fill="#546E7A"/>
<path fill-rule="evenodd" clip-rule="evenodd" d="M15.9993 8.00016H26.666C28.1327 8.00016 29.3327 9.20016 29.3327 10.6668V18.4142L26.666 17.202L20.7806 19.8778L19.9993 20.2319V24.728C19.9994 25.3832 20.0747 26.0335 20.2155 26.6668H5.33268C3.86602 26.6668 2.66602 25.4668 2.66602 24.0002L2.67904 8.00016C2.67904 6.5335 3.86602 5.3335 5.33268 5.3335H13.3327L15.9993 8.00016ZM11.3626 12.6668C9.50731 12.667 7.99954 14.1748 7.99935 16.0301C7.99935 17.8856 9.50719 19.3945 11.3626 19.3947C12.8258 19.3947 14.0709 18.4574 14.5306 17.1512H16.9694V19.3947H19.2116V17.1512H20.3327V14.909H14.5306C14.0709 13.6029 12.8258 12.6668 11.3626 12.6668Z" fill="#546E7A"/>
<path fill-rule="evenodd" clip-rule="evenodd" d="M31.9993 21.0913V24.728C31.9991 28.0914 29.7236 31.2366 26.666 32.0002C23.6084 31.2366 21.333 28.0914 21.3327 24.728V21.0913L26.666 18.6668L31.9993 21.0913ZM26.666 22.4468C26.6438 22.4468 26.6217 22.4474 26.5996 22.4494C26.5761 22.4515 26.5527 22.4541 26.5293 22.4585C26.5045 22.4632 26.4805 22.4708 26.4564 22.478C26.4389 22.4832 26.4215 22.4884 26.4043 22.495C26.3766 22.5055 26.3498 22.5176 26.3236 22.5314C26.3143 22.5363 26.304 22.5404 26.2949 22.5457C26.289 22.5492 26.2838 22.5538 26.278 22.5575C26.2545 22.5722 26.232 22.5881 26.2103 22.6056C26.194 22.6187 26.1782 22.6318 26.1634 22.646C26.1491 22.6598 26.1363 22.6751 26.123 22.6903C26.1043 22.7117 26.0866 22.7334 26.071 22.7567C26.0673 22.762 26.0627 22.7668 26.0592 22.7723L24.1035 25.8491C23.8991 26.1712 24.0045 26.5923 24.3392 26.7892C24.6743 26.9861 25.1123 26.8835 25.3171 26.5614L26.666 24.439L28.015 26.5614C28.2197 26.8835 28.6578 26.9861 28.9928 26.7892C29.3276 26.5923 29.4329 26.1712 29.2285 25.8491L27.2728 22.7723C27.2692 22.7666 27.2635 22.7622 27.2598 22.7567C27.244 22.7334 27.2265 22.7117 27.2077 22.6903C27.1944 22.6751 27.1817 22.6598 27.1673 22.646C27.1525 22.6318 27.1367 22.6187 27.1204 22.6056C27.0987 22.5882 27.0763 22.5721 27.0527 22.5575C27.0473 22.554 27.0427 22.549 27.0371 22.5457C27.0277 22.5402 27.0168 22.5365 27.0072 22.5314C26.9809 22.5176 26.9541 22.5055 26.9264 22.495C26.9096 22.4885 26.8927 22.4831 26.8757 22.478C26.8511 22.4707 26.8267 22.4632 26.8014 22.4585C26.7781 22.4541 26.7546 22.4514 26.7311 22.4494C26.7095 22.4474 26.6878 22.4468 26.666 22.4468Z" fill="#1195C2"/>
</g>
<defs>
<clipPath id="clip0_6935_6091">
<rect width="32" height="32" fill="white"/>
</clipPath>
</defs>
</svg>
