<svg width="32" height="32" viewBox="0 0 32 32" fill="none" xmlns="http://www.w3.org/2000/svg">
<g clip-path="url(#clip0_6935_6106)">
<path d="M12.696 14.9087C13.3125 14.9087 13.8169 15.4133 13.8171 16.0298C13.8171 16.6465 13.3126 17.1509 12.696 17.1509C12.0795 17.1507 11.5749 16.6463 11.5749 16.0298C11.5751 15.4134 12.0796 14.9089 12.696 14.9087Z" fill="#546E7A"/>
<path fill-rule="evenodd" clip-rule="evenodd" d="M15.9993 6.6665C20.0437 6.6665 23.4103 9.47215 24.166 13.2095C27.0549 13.4045 29.3327 15.7232 29.3327 18.5832C29.3327 18.872 29.3084 19.1555 29.2637 19.4321C28.2805 18.9425 27.1723 18.6665 25.9993 18.6665C22.6427 18.6665 19.814 20.922 18.9434 23.9998H9.33268C5.6549 23.9998 2.66602 21.0857 2.66602 17.4998C2.66602 14.1525 5.26577 11.3896 8.61003 11.0428C9.99893 8.44286 12.7883 6.6665 15.9993 6.6665ZM12.696 12.6665C10.8406 12.6667 9.33287 14.1745 9.33268 16.0298C9.33268 17.8853 10.8405 19.3942 12.696 19.3944C14.1591 19.3944 15.4042 18.4571 15.8639 17.1509H18.3027V19.3944H20.5449V17.1509H21.666V14.9087H15.8639C15.4042 13.6026 14.1591 12.6665 12.696 12.6665Z" fill="#546E7A"/>
<path fill-rule="evenodd" clip-rule="evenodd" d="M25.9993 19.9998C29.3131 19.9998 31.9993 22.6861 31.9993 25.9998C31.9993 29.3135 29.3131 31.9998 25.9993 31.9998C22.6856 31.9998 19.9993 29.3135 19.9993 25.9998C19.9993 22.6861 22.6856 19.9998 25.9993 19.9998ZM25.9993 22.6691C25.9714 22.6691 25.9437 22.6706 25.916 22.673C25.8855 22.6756 25.8552 22.6791 25.8249 22.6847C25.7994 22.6895 25.7743 22.6949 25.7493 22.7017C25.7204 22.7095 25.6917 22.7183 25.6634 22.729C25.6362 22.7392 25.61 22.7514 25.584 22.7642C25.5682 22.7719 25.5513 22.7776 25.5358 22.7863C25.5263 22.7916 25.5177 22.7989 25.5085 22.8045C25.4821 22.8206 25.4575 22.8391 25.4329 22.8579C25.4126 22.8735 25.3929 22.8891 25.3743 22.9061C25.3531 22.9256 25.3337 22.9468 25.3145 22.9686C25.2948 22.9907 25.2754 23.0126 25.2585 23.0363C25.2529 23.0442 25.2456 23.0516 25.2402 23.0597L22.7962 26.7511C22.5403 27.1378 22.673 27.6438 23.0918 27.88C23.5106 28.1159 24.0573 27.9931 24.3132 27.6066L25.9993 25.061L27.6855 27.6066C27.9414 27.9931 28.4881 28.1159 28.9069 27.88C29.3257 27.6438 29.4584 27.1378 29.2025 26.7511L26.7585 23.0597C26.753 23.0514 26.7447 23.0444 26.7389 23.0363C26.722 23.0126 26.7027 22.9908 26.6829 22.9686C26.6636 22.9468 26.6444 22.9256 26.623 22.9061C26.6045 22.8891 26.5849 22.8735 26.5645 22.8579C26.5399 22.8391 26.5153 22.8206 26.4889 22.8045C26.48 22.7991 26.4721 22.7915 26.4629 22.7863C26.4471 22.7774 26.4296 22.7721 26.4134 22.7642C26.3873 22.7515 26.3612 22.7392 26.334 22.729C26.3056 22.7183 26.277 22.7095 26.248 22.7017C26.2231 22.6949 26.198 22.6894 26.1725 22.6847C26.1422 22.6792 26.1119 22.6756 26.0814 22.673C26.0541 22.6706 26.0269 22.6691 25.9993 22.6691Z" fill="#1195C2"/>
</g>
<defs>
<clipPath id="clip0_6935_6106">
<rect width="32" height="32" fill="white"/>
</clipPath>
</defs>
</svg>
