<svg width="113" height="16" viewBox="0 0 113 16" fill="none" xmlns="http://www.w3.org/2000/svg">
<path d="M13.9488 0.00177768C13.793 0.000238702 13.6384 0.0297225 13.4941 0.0885085C13.3498 0.147294 13.2186 0.234205 13.1083 0.344168C12.998 0.454132 12.9107 0.584945 12.8515 0.728974C12.7923 0.873003 12.7625 1.02736 12.7637 1.18305V2.17677C11.3875 0.793837 9.51939 0.0112475 7.56744 0C3.39445 0 0 3.56247 0 7.94267C0 12.322 3.39178 15.8827 7.56744 15.8827C9.52211 15.8662 11.3902 15.0749 12.761 13.6828V14.6987C12.7647 15.0111 12.8907 15.3096 13.1121 15.5302C13.3335 15.7509 13.6326 15.8761 13.9453 15.8791C14.2578 15.8752 14.5564 15.7497 14.7777 15.5293C14.9991 15.3089 15.1256 15.0109 15.1304 14.6987V1.18305C15.1331 0.948401 15.0649 0.718396 14.9348 0.523049C14.8046 0.327703 14.6185 0.176089 14.4008 0.0879951C14.2562 0.029301 14.1013 -9.20038e-06 13.9453 0.00177768H13.9488ZM7.56299 13.5237C4.69795 13.5237 2.36855 11.0198 2.36855 7.94356C2.36855 4.86729 4.69617 2.3332 7.56299 2.3332C10.4307 2.3332 12.7592 4.85129 12.7592 7.94356C12.7592 11.0367 10.4316 13.5237 7.56299 13.5237ZM25.2995 0.0622188C23.4844 0.0622188 21.9238 0.787512 21.0224 1.99633V1.47281C21.0245 1.30416 20.9927 1.13682 20.9291 0.980611C20.8654 0.824408 20.7711 0.682502 20.6517 0.563244C20.5323 0.443985 20.3903 0.349782 20.2339 0.286178C20.0775 0.222573 19.91 0.190851 19.7412 0.192878C19.5722 0.191103 19.4046 0.222965 19.2481 0.286604C19.0916 0.350242 18.9494 0.444383 18.8297 0.563531C18.71 0.682679 18.6153 0.824449 18.551 0.980565C18.4868 1.13668 18.4543 1.30402 18.4555 1.47281V14.6365C18.4529 14.8908 18.527 15.1399 18.6683 15.3514C18.8096 15.5629 19.0114 15.727 19.2474 15.8222C19.404 15.8862 19.5712 15.9182 19.7403 15.9164C19.909 15.918 20.0764 15.8859 20.2326 15.8222C20.3888 15.7584 20.5307 15.6642 20.65 15.5451C20.7694 15.4259 20.8638 15.2842 20.9277 15.1282C20.9917 14.9722 21.0239 14.8051 21.0224 14.6365V7.38092C21.0224 4.36509 22.624 2.56519 25.2995 2.56519C25.6307 2.56449 25.9482 2.43281 26.1824 2.19896C26.4167 1.9651 26.5487 1.6481 26.5497 1.31726C26.5498 1.15327 26.5175 0.990871 26.4547 0.839354C26.3919 0.687837 26.2998 0.55018 26.1837 0.434265C26.0676 0.318348 25.9297 0.22645 25.778 0.163829C25.6263 0.101208 25.4637 0.0690957 25.2995 0.0693295M38.5196 12.0464C38.2414 12.0502 37.9727 12.148 37.7571 12.3238C37.0409 12.8535 35.9571 13.6517 34.1767 13.6517C31.2868 13.6517 29.8827 11.81 29.8827 8.02267C29.8827 4.23443 31.2868 2.42298 34.1767 2.42298C36.2143 2.42298 37.0293 3.3527 37.4706 3.85045C37.5826 3.99617 37.7268 4.11404 37.892 4.19484C38.0571 4.27564 38.2388 4.31718 38.4227 4.31621C38.5776 4.31984 38.7317 4.29209 38.8756 4.23464C39.0195 4.17719 39.1502 4.09122 39.26 3.98192C39.3697 3.87262 39.4562 3.74225 39.5141 3.59867C39.5721 3.45509 39.6003 3.30127 39.5972 3.14649C39.5943 2.87264 39.498 2.60797 39.324 2.39631C39.0437 2.00878 37.4715 0.0844398 34.1767 0.0844398C29.6843 0.0844398 27.3095 2.82829 27.3095 8.02178C27.3095 13.2162 29.6852 15.992 34.1767 15.992C36.0113 16.0184 37.7936 15.3814 39.195 14.1983C39.5482 13.8819 39.6932 13.5975 39.6932 13.217C39.6925 12.9063 39.5685 12.6086 39.3483 12.3891C39.1281 12.1697 38.8307 12.0464 38.5196 12.0464ZM48.0508 6.74185C46.2232 6.11522 44.6457 5.57302 44.6457 4.23799C44.6457 2.7714 46.2908 2.55275 47.2651 2.55275C49.0269 2.55275 49.9113 3.16782 50.5991 3.83001C50.7085 3.94403 50.8401 4.0346 50.9857 4.09618C51.1313 4.15777 51.288 4.18908 51.4461 4.18821C51.7568 4.18751 52.0546 4.06416 52.2746 3.84505C52.4946 3.62594 52.619 3.32884 52.6206 3.0185C52.6173 2.74293 52.5201 2.47672 52.3448 2.26387C51.2949 0.877285 49.4931 0.115549 47.266 0.115549C44.0825 0.115549 42.1027 1.69591 42.1027 4.23888C42.1027 7.34359 44.8254 8.26265 47.2278 9.07416C49.0162 9.67768 50.5626 10.1985 50.5626 11.4874C50.5626 13.2606 48.5775 13.5184 47.395 13.5184C45.7721 13.5184 44.4926 13.0277 43.4783 12.0162C43.3666 11.8957 43.2318 11.799 43.0818 11.7318C42.9318 11.6646 42.7698 11.6283 42.6054 11.6251C42.2948 11.6261 41.9971 11.7496 41.7772 11.9689C41.5574 12.1882 41.4333 12.4854 41.4319 12.7957C41.4354 13.0722 41.5324 13.3397 41.7086 13.5539C42.6535 14.7494 44.7791 15.9556 47.3986 15.9556C50.9728 15.9556 53.1073 14.2819 53.1073 11.4811C53.1073 8.4742 50.4211 7.55158 48.0517 6.7374M68.3855 6.57741C68.3855 5.49392 68.0785 0.0826621 62.0014 0.0826621C57.6362 0.0826621 55.136 2.97761 55.136 8.02C55.136 13.2357 57.6211 15.992 62.3235 15.992C65.4822 15.992 67.1994 14.4365 67.5108 14.1245C67.6437 14.0136 67.7506 13.875 67.8241 13.7183C67.8975 13.5617 67.9358 13.3909 67.9361 13.2179C67.9361 13.0641 67.9058 12.9118 67.8468 12.7698C67.7879 12.6277 67.7015 12.4986 67.5926 12.3899C67.4837 12.2812 67.3544 12.195 67.2121 12.1362C67.0699 12.0774 66.9174 12.0472 66.7634 12.0473C66.5005 12.0418 66.2436 12.1265 66.0356 12.2873C65.1334 12.9602 64.1048 13.6188 62.3191 13.6188C59.5537 13.6188 57.7973 11.8065 57.7074 8.87062H66.8542C68.381 8.87062 68.381 7.49114 68.381 6.57741H68.3855ZM61.997 2.42298C64.499 2.42298 65.7998 3.82734 65.871 6.5943H57.7216C57.9868 3.90201 59.4967 2.42298 61.9943 2.42298M77.857 0.155547C76.0614 0.155547 74.5186 0.869285 73.6288 2.06744V1.55014C73.6318 1.29844 73.5586 1.05172 73.4189 0.84223C73.2792 0.632743 73.0795 0.470243 72.8458 0.375979C72.6911 0.312849 72.5254 0.281123 72.3583 0.282651C72.1913 0.281349 72.0257 0.313245 71.8712 0.376481C71.7166 0.439717 71.5763 0.53303 71.4582 0.650987C71.3401 0.768944 71.2467 0.909188 71.1834 1.06355C71.1201 1.21792 71.0882 1.38332 71.0895 1.55014V14.5716C71.0874 14.7386 71.1189 14.9043 71.1819 15.0589C71.245 15.2136 71.3384 15.3541 71.4566 15.4721C71.5748 15.5901 71.7155 15.6833 71.8704 15.7462C72.0252 15.8091 72.1911 15.8404 72.3583 15.8382C72.61 15.8408 72.8567 15.7678 73.0666 15.6289C73.2764 15.4899 73.4397 15.2913 73.5354 15.0587C73.5986 14.9032 73.6306 14.7387 73.6288 14.5707V7.37915C73.6288 4.39709 75.2091 2.61674 77.857 2.61674C78.185 2.61604 78.4993 2.48571 78.7314 2.25421C78.9634 2.02271 79.0944 1.70887 79.0955 1.38126C79.0954 1.21902 79.0633 1.0584 79.0009 0.908587C78.9386 0.758777 78.8473 0.622721 78.7323 0.508208C78.6172 0.393695 78.4807 0.302974 78.3305 0.24124C78.1803 0.179505 78.0194 0.147969 77.857 0.148436M106.901 12.0553C106.638 12.0503 106.382 12.1346 106.174 12.2944C105.272 12.9673 104.242 13.6268 102.458 13.6268C99.6936 13.6268 97.9363 11.8136 97.8464 8.87862H106.994C108.522 8.87862 108.522 7.49825 108.522 6.58541C108.522 5.50103 108.214 0.0897728 102.137 0.0897728C97.7708 0.0897728 95.2706 2.98383 95.2706 8.02711C95.2706 13.2419 97.7566 16 102.458 16C105.616 16 107.335 14.4445 107.646 14.1334C107.781 14.0217 107.89 13.8815 107.965 13.7229C108.039 13.5644 108.078 13.3913 108.078 13.2162C108.078 13.0623 108.048 12.91 107.989 12.7678C107.93 12.6257 107.844 12.4966 107.735 12.3879C107.626 12.2792 107.496 12.1931 107.354 12.1345C107.212 12.0759 107.059 12.046 106.905 12.0464L106.901 12.0553ZM97.8713 6.59252C98.1365 3.90112 99.6455 2.42209 102.144 2.42209C104.642 2.42209 105.948 3.82379 106.018 6.59252H97.8713ZM87.4131 15.928C87.142 15.9297 86.8765 15.8511 86.6502 15.7021C86.4238 15.553 86.2468 15.3403 86.1416 15.0907L80.666 2.11366C80.666 2.10566 80.6509 2.071 80.6455 2.05322C80.5795 1.89121 80.5457 1.71794 80.5459 1.54303C80.5429 1.27228 80.6217 1.00693 80.7721 0.781613C80.9224 0.556298 81.1372 0.381483 81.3885 0.279984C81.5557 0.212433 81.7346 0.177768 81.9134 0.180434C82.1932 0.170716 82.4687 0.251562 82.6988 0.410928C82.9289 0.570295 83.1012 0.799652 83.1902 1.06483L88.818 14.785L88.6854 15.0907C88.5809 15.341 88.404 15.5544 88.1773 15.7035C87.9506 15.8527 87.6845 15.9309 87.4131 15.928ZM94.1868 2.05233C94.2509 1.88967 94.2838 1.71724 94.2838 1.54303C94.2854 1.36338 94.2512 1.18522 94.1832 1.0189C94.1152 0.852576 94.0148 0.701411 93.8879 0.57419C93.7604 0.44736 93.6089 0.347207 93.4422 0.279595C93.2755 0.211984 93.097 0.178272 92.9171 0.180434C92.6376 0.170915 92.3625 0.251511 92.1324 0.410302C91.9023 0.569094 91.7294 0.797649 91.6394 1.06216L87.8864 10.219L89.2958 13.6544L94.1628 2.11722L94.1868 2.05233ZM113 1.8719C113 3.02294 112.391 3.56425 111.347 3.56425C110.339 3.56425 109.718 3.02205 109.718 1.8719C109.718 0.720849 110.339 0.191989 111.347 0.191989C112.391 0.191989 113 0.720849 113 1.8719ZM112.69 1.8719C112.69 0.864841 112.223 0.455975 111.358 0.455975C110.494 0.455975 110.029 0.864841 110.029 1.8719C110.029 2.87895 110.506 3.29848 111.358 3.29848C112.212 3.29848 112.69 2.87806 112.69 1.8719ZM111.003 2.05855V2.60163C111.003 2.62079 111 2.63978 110.992 2.65749C110.985 2.67519 110.974 2.69126 110.961 2.70474C110.94 2.72478 110.914 2.7384 110.886 2.74388C110.858 2.74937 110.829 2.74649 110.803 2.73559C110.776 2.7247 110.754 2.70628 110.738 2.68262C110.721 2.65896 110.713 2.6311 110.712 2.60252V1.15016C110.713 1.11165 110.728 1.0748 110.755 1.04766C110.783 1.02051 110.82 1.00528 110.858 1.00528H111.47C111.577 0.999051 111.683 1.02579 111.775 1.08189C111.866 1.13799 111.938 1.22076 111.981 1.31904C112.01 1.38441 112.024 1.45491 112.024 1.52614C112.024 1.80168 111.813 2.05589 111.568 2.05589L111.935 2.50919C111.957 2.5337 111.968 2.56547 111.967 2.59808C111.967 2.63452 111.954 2.66919 111.93 2.69585C111.905 2.72281 111.871 2.7396 111.834 2.74296C111.81 2.74263 111.787 2.73653 111.766 2.72518C111.744 2.71345 111.726 2.69667 111.713 2.6763L111.259 2.05677L111.003 2.05855ZM111.47 1.81679C111.508 1.81838 111.545 1.81177 111.58 1.79744C111.615 1.78311 111.646 1.76139 111.671 1.7338C111.697 1.70621 111.716 1.67342 111.727 1.63771C111.739 1.602 111.742 1.56422 111.737 1.52703C111.74 1.47272 111.727 1.41882 111.698 1.37268C111.669 1.32654 111.627 1.29042 111.576 1.26926C111.543 1.2554 111.507 1.24874 111.47 1.24971H111.003V1.81412L111.47 1.81679Z" fill="#00ADDC"/>
</svg>
