<svg width="27" height="27" viewBox="0 0 27 27" fill="none" xmlns="http://www.w3.org/2000/svg">
<path d="M10.2782 12.4078C10.9402 12.4078 11.4816 12.9491 11.4816 13.6111C11.4816 14.2732 10.9402 14.8145 10.2782 14.8145C9.61617 14.8145 9.07487 14.2732 9.07487 13.6111C9.07487 12.9491 9.61617 12.4078 10.2782 12.4078Z" fill="#546E7A"/>
<path fill-rule="evenodd" clip-rule="evenodd" d="M11.1115 4.44446L13.3338 6.66668H22.2227C23.4449 6.66668 24.4449 7.66668 24.4449 8.8889V20C24.4449 21.2222 23.4449 22.2222 22.2227 22.2222H4.44488C3.22266 22.2222 2.22266 21.2222 2.22266 20L2.23351 6.66668C2.23351 5.44446 3.22266 4.44446 4.44488 4.44446H11.1115ZM10.2782 10C8.28608 10 6.6671 11.619 6.6671 13.6111C6.6671 15.6033 8.28608 17.2222 10.2782 17.2222C11.849 17.2222 13.1853 16.2168 13.6788 14.8145H16.2971V17.2222H18.7038V14.8145H19.9082V12.4078H13.6788C13.1853 11.0055 11.849 10 10.2782 10Z" fill="#546E7A"/>
</svg>
