<svg width="24" height="25" viewBox="0 0 24 25" fill="none" xmlns="http://www.w3.org/2000/svg">
<path d="M12.001 1.11932C18.6279 1.11932 24 6.46477 24 13.0587C24 19.0912 19.5037 24.0778 13.6638 24.8833C13.6353 24.8873 13.6069 24.8916 13.5785 24.8954C13.5316 24.9015 13.4846 24.9069 13.4375 24.9125C13.3689 24.9208 13.3003 24.9287 13.2317 24.9358C13.2283 24.9362 13.2249 24.9366 13.2214 24.9369C7.46089 25.5299 1.95777 21.8926 0.410959 16.1485C0.332841 15.8584 0.266553 15.5676 0.211023 15.277L1.68417 14.9982C1.73283 15.2529 1.79171 15.5079 1.8603 15.7626C3.11779 20.4322 7.36285 23.5103 12.001 23.5075V23.5057C12.4987 23.5057 12.9883 23.4703 13.4675 23.4037C13.8842 23.3447 14.302 23.2608 14.7188 23.1497L14.7191 23.1512C19.2 21.9594 22.5001 17.893 22.5001 13.0587C22.5001 7.28901 17.7995 2.61174 12.001 2.61174V3.73106L10.1261 1.86553L12.001 0V1.11932Z" fill="#00B8D4"/>
<path fill-rule="evenodd" clip-rule="evenodd" d="M18.0005 8.6831V12.7534C18.0005 16.5184 15.4407 20.0392 12.001 20.894C8.56129 20.0392 6.00145 16.5183 6.00145 12.7534V8.6831L12.001 5.9697L18.0005 8.6831ZM10.6677 14.9038L8.94115 13.1538L8.00153 14.1103L10.6677 16.8237L16.0008 11.3969L15.0608 10.4335L10.6677 14.9038Z" fill="#00B8D4"/>
<path d="M1.56626 11.8796C1.50741 12.394 1.48696 12.9167 1.50694 13.4431L0.00852516 13.4992C-0.0143295 12.897 0.00893936 12.2994 0.0762687 11.7109L1.56626 11.8796Z" fill="#00B8D4"/>
<path d="M2.38468 8.86601C2.17414 9.34328 1.99912 9.83709 1.86177 10.3428L0.413888 9.95327C0.570874 9.37532 0.770693 8.81133 1.01113 8.26627L2.38468 8.86601Z" fill="#00B8D4"/>
<path d="M4.05886 6.22475C3.71524 6.62093 3.40228 7.04193 3.12253 7.48326L1.85371 6.68713C2.17319 6.18312 2.53107 5.70241 2.9237 5.24972L4.05886 6.22475Z" fill="#00B8D4"/>
<path d="M5.78943 4.63322C5.57736 4.78812 5.37169 4.95031 5.17315 5.11965L4.19691 3.98648C4.42394 3.79285 4.65923 3.60728 4.90181 3.4301L5.78943 4.63322Z" fill="#00B8D4"/>
</svg>
