<svg width="24" height="24" viewBox="0 0 24 24" fill="none" xmlns="http://www.w3.org/2000/svg">
<path d="M17.9818 11.9331L12.2109 17.8584V17.8878L12.1977 17.8741L12.1844 17.8878L12.1803 17.8899V17.8612L6.40935 11.9352C6.40951 5.34316 11.5902 0 17.9818 0V11.9331Z" fill="#FBC02D"/>
<path d="M12.8192 0H6.4099V6.6055C7.54911 3.58059 9.88417 1.17407 12.8192 0Z" fill="#FBC02D"/>
<path d="M3.91682 10.6177V11.6942H3.13346V10.6177H3.91682Z" fill="#FBC02D"/>
<path d="M5.48355 10.6177L5.48355 11.6942H4.70019V10.6177L5.48355 10.6177Z" fill="#FBC02D"/>
<path d="M1.56673 9.54128L1.56673 10.6177H2.35009L2.35009 11.6942H1.56673V12.7706L0 11.156L1.56673 9.54128Z" fill="#FBC02D"/>
<path d="M20.0832 10.6177V11.6942H20.8665V10.6177H20.0832Z" fill="#FBC02D"/>
<path d="M18.5164 10.6177V11.6942H19.2998V10.6177L18.5164 10.6177Z" fill="#FBC02D"/>
<path d="M22.4333 9.54128V10.6177H21.6499V11.6942H22.4333V12.7706L24 11.156L22.4333 9.54128Z" fill="#FBC02D"/>
<path d="M6.35775 15.8479L7.09631 16.609L6.54239 17.1799L5.80383 16.4187L6.35775 15.8479Z" fill="#FBC02D"/>
<path d="M7.46559 14.7061L8.20416 15.4673L7.65023 16.0382L6.91167 15.277L7.46559 14.7061Z" fill="#FBC02D"/>
<path d="M3.95742 16.7993L4.69598 17.5605L5.2499 16.9896L5.98847 17.7508L5.43455 18.3217L6.17311 19.0828H3.95742V16.7993Z" fill="#FBC02D"/>
<path d="M17.5407 15.8479L16.8021 16.609L17.3561 17.1799L18.0946 16.4187L17.5407 15.8479Z" fill="#FBC02D"/>
<path d="M16.4329 14.7061L15.6943 15.4673L16.2482 16.0382L16.9868 15.277L16.4329 14.7061Z" fill="#FBC02D"/>
<path d="M19.941 16.7993L19.2025 17.5605L18.6486 16.9896L17.91 17.7508L18.4639 18.3217L17.7254 19.0828H19.941V16.7993Z" fill="#FBC02D"/>
<path d="M11.7273 19.9633H12.7718V20.7706H11.7273V19.9633Z" fill="#FBC02D"/>
<path d="M11.7273 18.3486H12.7718V19.156H11.7273V18.3486Z" fill="#FBC02D"/>
<path d="M10.6828 22.3853H11.7273V21.578H12.7718V22.3853H13.8163L12.2495 24L10.6828 22.3853Z" fill="#FBC02D"/>
</svg>
